<svg width="313" height="384" viewBox="0 0 313 384" fill="none" xmlns="http://www.w3.org/2000/svg">
<path d="M92.2345 84.2605L217.853 2L310.928 297.556L175.546 382L128.085 351.866L51.8501 303.464L2.41406 272.077L36.88 200.008L51.8501 168.705L92.2345 84.2605Z" fill="white"/>
<path d="M175.546 382L310.928 297.556L217.853 2L92.2345 84.2605M175.546 382L128.085 351.866M175.546 382L143.362 266.981M92.2345 84.2605L128.085 212.383M92.2345 84.2605L51.8501 168.705M128.085 212.383V351.866M128.085 212.383L143.362 266.981M128.085 351.866L51.8501 303.464M51.8501 168.705V303.464M51.8501 168.705L36.88 200.008M51.8501 303.464L2.41406 272.077L36.88 200.008M36.88 200.008L143.362 266.981" stroke="#172E58" stroke-width="2.4"/>
<path d="M217.962 2L92.4961 84.2605L128.303 212.383L143.562 266.981L175.707 382L310.924 297.556L217.962 2Z" fill="#FF364C" stroke="#172E58" stroke-width="2.4"/>
</svg>
