<svg width="301" height="380" viewBox="0 0 301 380" fill="none" xmlns="http://www.w3.org/2000/svg">
<path d="M106.915 73.298L124.201 82.1927V88.4048V108.171V128.784V148.55V169.445V188.082V209.259H106.915H89.6289V188.082V169.445V148.55V128.784V108.171V88.4048V64.4033L106.915 73.298Z" fill="white"/>
<path d="M89.6289 209.259H106.915M89.6289 209.259V188.082M89.6289 209.259L106.915 195.988M124.201 209.259H106.915M124.201 209.259V188.082M124.201 209.259L106.915 195.988M106.915 73.298L124.201 82.1927V88.4048M106.915 73.298L89.6289 64.4033V88.4048M106.915 73.298V78.8042M106.915 209.259V195.988M106.915 78.8042L124.201 88.4048M106.915 78.8042V97.4407M106.915 78.8042L89.6289 88.4048M124.201 88.4048L106.915 97.4407M124.201 88.4048V108.171M106.915 97.4407L124.201 108.171M106.915 97.4407V117.771M106.915 97.4407L89.6289 88.4048M106.915 97.4407L89.6289 108.171M124.201 108.171L106.915 117.771M124.201 108.171V128.784M106.915 117.771L124.201 128.784M106.915 117.771V138.667M106.915 117.771L89.6289 108.171M106.915 117.771L89.6289 128.784M124.201 128.784L106.915 138.667M124.201 128.784V148.55M106.915 138.667L124.201 148.55M106.915 138.667V157.586M106.915 138.667L89.6289 128.784M106.915 138.667L89.6289 148.55M124.201 148.55L106.915 157.586M124.201 148.55V169.445M106.915 157.586L124.201 169.445M106.915 157.586V177.352M106.915 157.586L89.6289 148.55M106.915 157.586L89.6289 169.445M124.201 169.445L106.915 177.352M124.201 169.445V188.082M106.915 177.352L124.201 188.082M106.915 177.352V195.988M106.915 177.352L89.6289 169.445M106.915 177.352L89.6289 188.082M124.201 188.082L106.915 195.988M106.915 195.988L89.6289 188.082M89.6289 88.4048V108.171M89.6289 108.171V128.784M89.6289 128.784V148.55M89.6289 148.55V169.445M89.6289 169.445V188.082" stroke="#172E58" stroke-width="2.4"/>
<path d="M61.2318 36.7316L48.5759 42.9437L42.7109 40.1385L33.7592 45.4851L18.2149 37.5787L1.34766 29.39V20.3541V10.4711L14.6209 3.12948L20.7946 6.41697L30.055 2L45.4891 9.62401V17.8128L43.3283 18.8531L61.2318 28.2605V36.7316Z" fill="white"/>
<path d="M48.5759 42.9437L61.2318 36.7316V28.2605M48.5759 42.9437V34.1903M48.5759 42.9437L42.7109 40.1385M61.2318 28.2605L48.5759 34.1903M61.2318 28.2605L43.3283 18.8531M48.5759 34.1903L33.7592 26.749M1.34766 20.3541V10.4711M1.34766 20.3541V29.39L18.2149 37.5787M1.34766 20.3541L42.7109 40.1385M1.34766 10.4711L18.2149 18.9422M1.34766 10.4711L14.6209 3.12948L20.7946 6.41697M18.2149 18.9422V37.5787M18.2149 18.9422L33.7592 26.749M18.2149 37.5787L33.7592 45.4851M33.7592 45.4851V26.749M33.7592 45.4851L42.7109 40.1385M18.2149 7.64741V16.1185L33.7592 23.4602M18.2149 7.64741L33.7592 15.8362M18.2149 7.64741L20.7946 6.41697M33.7592 23.4602V15.8362M33.7592 23.4602L43.3283 18.8531M33.7592 15.8362L45.4891 9.62401M45.4891 9.62401V17.8128L43.3283 18.8531M45.4891 9.62401L30.055 2L20.7946 6.41697" stroke="#172E58" stroke-width="2.4"/>
<path d="M259.404 126.528V137.258L249.526 142.637V175.819L264.034 183.284V190.626L251.687 197.121L236.87 188.932V181.59L249.217 175.66L249.526 175.819V142.637L246.439 144.317L232.549 137.295L218.041 129.961L203.533 122.627L189.06 115.31L174.517 107.958L160.009 100.624L143.611 92.3346L124.863 82.8571L107.224 73.9402L89.9379 65.2015L76.5732 58.4453L61.8022 50.9782L47.0312 43.511V33.6281L60.3045 25.7217L74.5039 32.911L89.9379 40.7254L103.211 47.4458L120.806 56.3543L138.28 65.2015L155.996 74.1712L172.047 82.2982L186.555 89.6438L201.372 97.1457L215.88 104.491L230.388 111.837L244.896 119.182L259.404 126.528Z" fill="white"/>
<path d="M47.0312 43.511L60.3045 35.3223M47.0312 43.511V33.6281M47.0312 43.511L61.8022 50.9782M246.439 144.317V132.74M246.439 144.317L232.549 137.295M246.439 144.317L249.526 142.637M259.404 137.258V126.528M259.404 137.258L244.896 129.83M259.404 137.258L249.526 142.637M60.3045 35.3223V25.7217M60.3045 35.3223L74.5039 42.5921M259.404 126.528L246.439 132.74M259.404 126.528L244.896 119.182M246.439 132.74L232.549 125.836M60.3045 25.7217L47.0312 33.6281M60.3045 25.7217L74.5039 32.911M47.0312 33.6281L61.8022 40.9697M232.549 125.836V137.295M232.549 125.836L218.041 118.625M232.549 125.836L244.896 119.182M232.549 137.295L218.041 129.961M232.549 137.295L244.896 129.83M218.041 118.625V129.961M218.041 118.625L203.533 111.414M218.041 118.625L230.388 111.837M218.041 129.961L203.533 122.627M218.041 129.961L230.388 122.402M203.533 111.414V122.627M203.533 111.414L189.06 104.221M203.533 111.414L215.88 104.491M203.533 122.627L189.06 115.31M203.533 122.627L215.88 114.974M189.06 104.221V115.31M189.06 104.221L174.517 96.9923M189.06 104.221L201.372 97.1457M189.06 115.31L174.517 107.958M189.06 115.31L201.372 107.547M174.517 96.9923V107.958M174.517 96.9923L160.009 89.7813M174.517 96.9923L186.555 89.6438M174.517 107.958L160.009 100.624M174.517 107.958L186.555 99.9606M160.009 89.7813V100.624M160.009 89.7813L143.611 81.6311M160.009 89.7813L172.047 82.2982M160.009 100.624L143.611 92.3346M160.009 100.624L172.047 92.5328M143.611 81.6311V92.3346M143.611 81.6311L124.863 72.3128M143.611 81.6311L155.996 74.1712M143.611 92.3346L124.863 82.8571M143.611 92.3346L155.996 84.3147M124.863 72.3128V82.8571M124.863 72.3128L107.224 63.5458M124.863 72.3128L138.28 65.2015M124.863 82.8571L107.224 73.9402M124.863 82.8571L138.28 75.2445M107.224 63.5458V73.9402M107.224 63.5458L89.9379 54.954M107.224 63.5458L120.806 56.3543M107.224 73.9402L89.9379 65.2015M107.224 73.9402L120.806 66.2981M89.9379 54.954V65.2015M89.9379 54.954L76.5732 48.3113M89.9379 54.954L103.211 47.4458M89.9379 65.2015L76.5732 58.4453M89.9379 65.2015L103.211 57.2898M76.5732 48.3113V58.4453M76.5732 48.3113L61.8022 40.9697M76.5732 48.3113L89.9379 40.7254M76.5732 58.4453L61.8022 50.9782M76.5732 58.4453L89.9379 50.4941M61.8022 40.9697V50.9782M61.8022 40.9697L74.5039 32.911M61.8022 50.9782L74.5039 42.5921M74.5039 32.911C74.5039 36.138 74.5039 42.5921 74.5039 42.5921M74.5039 32.911L89.9379 40.7254M74.5039 42.5921L89.9379 50.4941M244.896 119.182V129.83M244.896 119.182L230.388 111.837M244.896 129.83L230.388 122.402M230.388 111.837V122.402M230.388 111.837L215.88 104.491M230.388 122.402L215.88 114.974M215.88 104.491V114.974M215.88 104.491L201.372 97.1457M215.88 114.974L201.372 107.547M201.372 97.1457V107.547M201.372 97.1457L186.555 89.6438M201.372 107.547L186.555 99.9606M186.555 89.6438V99.9606M186.555 89.6438L172.047 82.2982M186.555 99.9606L172.047 92.5328M172.047 82.2982L155.996 74.1712M172.047 82.2982V92.5328M155.996 74.1712L138.28 65.2015M155.996 74.1712V84.3147M138.28 65.2015L120.806 56.3543M138.28 65.2015V75.2445M120.806 56.3543L103.211 47.4458M120.806 56.3543V66.2981M103.211 47.4458L89.9379 40.7254M103.211 47.4458V57.2898M89.9379 40.7254V50.4941M172.047 92.5328L155.996 84.3147M155.996 84.3147L138.28 75.2445M138.28 75.2445L120.806 66.2981M120.806 66.2981L103.211 57.2898M103.211 57.2898L89.9379 50.4941M249.526 142.637V182.72M264.034 183.284L251.687 189.497M264.034 183.284L249.217 175.66L236.87 181.59M264.034 183.284V190.626L251.687 197.121M251.687 189.497L236.87 181.59M251.687 189.497V197.121M236.87 181.59V188.932L251.687 197.121" stroke="#172E58" stroke-width="2.4"/>
<path d="M133.592 164.962L198.232 202.705L133.592 241.287V305.45L64.3672 266.029V202.705L133.592 164.962Z" fill="white"/>
<path d="M64.3672 202.705L133.592 164.962L198.232 202.705L133.592 241.287M64.3672 202.705L133.592 241.287M64.3672 202.705V266.029L133.592 305.45V241.287M93.2491 225.243L127.174 244.222V293.708L93.2491 274.985M93.2491 225.243L71.7023 213.189V263.094L93.2491 274.985M93.2491 225.243V274.985" stroke="#172E58" stroke-width="2.4"/>
<path d="M202.813 177.125L299.545 229.965V303.355L202.813 357.872L106.082 303.355V229.965L202.813 177.125Z" fill="white"/>
<path d="M106.082 229.965L202.813 282.386M106.082 229.965L202.813 177.125L299.545 229.965M106.082 229.965V303.355L202.813 357.872M202.813 282.386L299.545 229.965M202.813 282.386V357.872M299.545 229.965V303.355L202.813 357.872" stroke="#172E58" stroke-width="2.4"/>
<path d="M299.544 229.963L202.812 282.384V357.87L299.544 303.352V229.963Z" fill="#FF364C" stroke="#172E58" stroke-width="2.4"/>
<path d="M125.337 248.836L177.141 277.353V343.194L115.251 378.001L61.6133 347.387V282.385L125.337 248.836Z" fill="white"/>
<path d="M177.141 277.353L125.337 248.836L61.6133 282.385M177.141 277.353L115.251 312.999M177.141 277.353V343.194L115.251 378.001M115.251 312.999L61.6133 282.385M115.251 312.999V378.001M61.6133 282.385V347.387L115.251 378.001M147.113 302.096L121.669 317.193V366.678L147.113 352.42M147.113 302.096L172.556 286.998V338.161L147.113 352.42M147.113 302.096V352.42M87.7445 305.241L108.374 317.193V366.678L87.7445 354.936M87.7445 305.241L67.1146 293.289V343.194L87.7445 354.936M87.7445 305.241V354.936" stroke="#172E58" stroke-width="2.4"/>
</svg>
