<svg width="224" height="376" viewBox="0 0 224 376" fill="none" xmlns="http://www.w3.org/2000/svg">
<path d="M90.9446 336.239L213.761 279.82V317.433L90.9446 373.852L58.6244 358.906L34.3843 347.697L9.60547 336.239V298.627L34.3843 310.085L58.6244 321.294L90.9446 336.239Z" fill="white"/>
<path d="M90.9446 373.852V336.239M90.9446 373.852L213.761 317.433V279.82L90.9446 336.239M90.9446 373.852L58.6244 358.906M90.9446 336.239L58.6244 321.294M34.3843 310.085L9.60547 298.627V336.239L34.3843 347.697M34.3843 310.085V347.697M34.3843 310.085L58.6244 321.294M34.3843 347.697L58.6244 358.906M58.6244 321.294V358.906M97.4087 338.804V366.158L148.879 342.451V315.296L97.4087 338.804ZM207.836 315.296V288.369L155.046 312.479V339.611L207.836 315.296Z" stroke="#172E58" stroke-width="2.4"/>
<path d="M221.84 284.094L90.943 343.505L2.0625 302.473V294.352L127.034 237.506L221.84 275.973V284.094Z" fill="white"/>
<path d="M90.943 343.505L221.84 284.094V275.973M90.943 343.505V335.812M90.943 343.505L2.0625 302.473V294.352M221.84 275.973L90.943 335.812M221.84 275.973L127.034 237.506L2.0625 294.352M90.943 335.812L2.0625 294.352" stroke="#172E58" stroke-width="2.4"/>
<path d="M205.141 276.401L91.4814 328.546L17.6836 295.207V54.1447L132.42 2L205.141 35.3384V276.401Z" fill="white"/>
<path d="M91.4814 328.546L205.141 276.401V35.3384M91.4814 328.546L17.6836 295.207V54.1447M91.4814 328.546V87.0558M205.141 35.3384L91.4814 87.0558M205.141 35.3384L132.42 2L17.6836 54.1447M91.4814 87.0558L17.6836 54.1447" stroke="#172E58" stroke-width="2.4"/>
<path d="M205.146 276.402L91.4863 328.547V87.0572L205.146 35.3398V276.402Z" fill="#FF364C" stroke="#FF364C"/>
<path d="M31.1484 167.836V160.142L46.7699 167.836V175.529L31.1484 167.836Z" stroke="#172E58" stroke-width="2.4"/>
<path d="M31.1484 184.932V177.239L46.7699 184.932V192.626L31.1484 184.932Z" stroke="#172E58" stroke-width="2.4"/>
<path d="M31.1484 202.029V194.336L46.7699 202.029V209.723L31.1484 202.029Z" stroke="#172E58" stroke-width="2.4"/>
<path d="M31.1484 219.126V211.432L46.7699 219.126V226.819L31.1484 219.126Z" stroke="#172E58" stroke-width="2.4"/>
<path d="M31.1484 236.222V228.529L46.7699 236.222V243.916L31.1484 236.222Z" stroke="#172E58" stroke-width="2.4"/>
<path d="M31.1484 253.319V245.626L46.7699 253.319V261.013L31.1484 253.319Z" stroke="#172E58" stroke-width="2.4"/>
<path d="M31.1484 270.416V262.722L46.7699 270.416V278.109L31.1484 270.416Z" stroke="#172E58" stroke-width="2.4"/>
<path d="M31.1484 287.512V279.819L46.7699 287.512V295.206L31.1484 287.512Z" stroke="#172E58" stroke-width="2.4"/>
<path d="M31.1484 133.643V125.949L46.7699 133.643V141.336L31.1484 133.643Z" stroke="#172E58" stroke-width="2.4"/>
<path d="M31.1484 116.546V108.852L46.7699 116.546V124.239L31.1484 116.546Z" stroke="#172E58" stroke-width="2.4"/>
<path d="M31.1484 99.4493V91.7558L46.7699 99.4493V107.143L31.1484 99.4493Z" stroke="#172E58" stroke-width="2.4"/>
<path d="M31.1484 82.3527V74.6592L46.7699 82.3527V90.0462L31.1484 82.3527Z" stroke="#172E58" stroke-width="2.4"/>
<path d="M61.3125 181.516V173.822L76.9339 181.516V189.209L61.3125 181.516Z" stroke="#172E58" stroke-width="2.4"/>
<path d="M61.3125 198.612V190.919L76.9339 198.612V206.306L61.3125 198.612Z" stroke="#172E58" stroke-width="2.4"/>
<path d="M61.3125 215.709V208.015L76.9339 215.709V223.402L61.3125 215.709Z" stroke="#172E58" stroke-width="2.4"/>
<path d="M61.3125 232.805V225.112L76.9339 232.805V240.499L61.3125 232.805Z" stroke="#172E58" stroke-width="2.4"/>
<path d="M61.3125 249.902V242.209L76.9339 249.902V257.596L61.3125 249.902Z" stroke="#172E58" stroke-width="2.4"/>
<path d="M61.3125 266.999V259.305L76.9339 266.999V274.692L61.3125 266.999Z" stroke="#172E58" stroke-width="2.4"/>
<path d="M61.3125 284.095V276.402L76.9339 284.095V291.789L61.3125 284.095Z" stroke="#172E58" stroke-width="2.4"/>
<path d="M61.3125 301.192V293.499L76.9339 301.192V308.886L61.3125 301.192Z" stroke="#172E58" stroke-width="2.4"/>
<path d="M61.3125 147.322V139.629L76.9339 147.322V155.016L61.3125 147.322Z" stroke="#172E58" stroke-width="2.4"/>
<path d="M61.3125 130.226V122.532L76.9339 130.226V137.919L61.3125 130.226Z" stroke="#172E58" stroke-width="2.4"/>
<path d="M61.3125 113.129V105.436L76.9339 113.129V120.822L61.3125 113.129Z" stroke="#172E58" stroke-width="2.4"/>
<path d="M61.3125 96.0324V88.3389L76.9339 96.0324V103.726L61.3125 96.0324Z" stroke="#172E58" stroke-width="2.4"/>
</svg>
