<svg width="39" height="39" viewBox="0 0 39 39" fill="none" xmlns="http://www.w3.org/2000/svg">
<path d="M36.3377 0.75569H2.74159C1.59104 0.75569 0.658203 1.69546 0.658203 2.85458V36.7007C0.658203 37.8598 1.59104 38.7996 2.74159 38.7996H20.8265V24.0663H15.9021V18.3278H20.8265V14.0873C20.8265 9.1762 23.8055 6.50132 28.1582 6.50132C30.2433 6.50132 32.0347 6.65468 32.5586 6.72601V11.8618H29.5371C27.1758 11.8618 26.7173 13.0048 26.7173 14.6686V18.3314H32.3568L31.624 24.0842H26.7156V38.7978H36.336C37.4883 38.7978 38.4211 37.8598 38.4211 36.6989V2.85279C38.4211 1.69368 37.49 0.753906 36.3377 0.753906V0.75569Z" fill="white"/>
</svg>
