<svg width="39" height="39" viewBox="0 0 39 39" fill="none" xmlns="http://www.w3.org/2000/svg">
<path d="M25.7595 19.7767C25.7595 20.9807 25.4051 22.1576 24.7412 23.1587C24.0773 24.1597 23.1336 24.9399 22.0296 25.4007C20.9255 25.8614 19.7107 25.982 18.5386 25.7471C17.3666 25.5122 16.29 24.9324 15.445 24.0811C14.6 23.2298 14.0246 22.1451 13.7914 20.9643C13.5583 19.7835 13.6779 18.5595 14.1352 17.4472C14.5926 16.3349 15.367 15.3842 16.3606 14.7153C17.3542 14.0464 18.5224 13.6894 19.7174 13.6894C21.3193 13.6913 22.855 14.3332 23.9878 15.4744C25.1205 16.6156 25.7576 18.1628 25.7595 19.7767ZM38.5988 11.4067V28.1468C38.5957 30.9711 37.4806 33.6788 35.4984 35.6759C33.5161 37.673 30.8286 38.7964 28.0252 38.7996H11.4096C8.60623 38.7964 5.91863 37.673 3.93638 35.6759C1.95413 33.6788 0.839112 30.9711 0.835938 28.1468V11.4067C0.839112 8.58238 1.95413 5.87466 3.93638 3.87757C5.91863 1.88048 8.60623 0.757105 11.4096 0.753906H28.0252C30.8286 0.757105 33.5161 1.88048 35.4984 3.87757C37.4806 5.87466 38.5957 8.58238 38.5988 11.4067ZM28.7805 19.7767C28.7805 17.9708 28.2489 16.2054 27.2531 14.7038C26.2572 13.2023 24.8418 12.0319 23.1857 11.3408C21.5296 10.6497 19.7073 10.4689 17.9493 10.8212C16.1912 11.1735 14.5763 12.0432 13.3088 13.3202C12.0413 14.5972 11.1781 16.2241 10.8284 17.9954C10.4787 19.7666 10.6582 21.6025 11.3442 23.271C12.0301 24.9395 13.1918 26.3655 14.6822 27.3688C16.1726 28.3722 17.9249 28.9077 19.7174 28.9077C22.1202 28.905 24.4239 27.9421 26.123 26.2303C27.822 24.5185 28.7778 22.1976 28.7805 19.7767ZM31.8015 9.88486C31.8015 9.43338 31.6686 8.99204 31.4197 8.61664C31.1707 8.24125 30.8168 7.94866 30.4028 7.77589C29.9888 7.60311 29.5332 7.55791 29.0937 7.64599C28.6542 7.73407 28.2505 7.95148 27.9336 8.27072C27.6167 8.58997 27.4009 8.99671 27.3135 9.43952C27.2261 9.88233 27.271 10.3413 27.4424 10.7584C27.6139 11.1755 27.9043 11.5321 28.2769 11.7829C28.6496 12.0337 29.0876 12.1676 29.5357 12.1676C30.1367 12.1676 30.713 11.9271 31.1379 11.499C31.5628 11.0709 31.8015 10.4903 31.8015 9.88486Z" fill="white"/>
</svg>
