<svg width="23" height="21" viewBox="0 0 23 21" fill="none" xmlns="http://www.w3.org/2000/svg">
<path d="M20.4257 1H2.76599C1.792 1 1 1.94468 1 3.10644V17.8514C1 19.0131 1.792 19.9578 2.76599 19.9578H20.4258C21.3997 19.9578 22.1917 19.0131 22.1917 17.8514V3.10644C22.1917 1.94468 21.3997 1 20.4257 1ZM2.76599 2.0532H20.4258C20.4908 2.0532 20.5482 2.08148 20.6092 2.09748C19.0803 3.76651 14.0107 9.29844 12.2366 11.205C12.0978 11.3542 11.874 11.5321 11.5959 11.5321C11.3178 11.5321 11.094 11.3542 10.9548 11.2045C9.18083 9.29824 4.11092 3.76601 2.58226 2.09758C2.64343 2.08158 2.70088 2.0532 2.76599 2.0532ZM1.88297 17.8514V3.10644C1.88297 3.00326 1.90905 2.90965 1.93239 2.81536C3.10257 4.09284 6.63994 7.95273 8.93361 10.4406C6.64739 12.783 3.10911 16.7843 1.92962 18.1259C1.9088 18.0363 1.88297 17.9487 1.88297 17.8514ZM20.4257 18.9046H2.76599C2.69546 18.9046 2.63276 18.8753 2.5669 18.8565C3.78572 17.4706 7.3465 13.4463 9.59254 11.1545C9.88533 11.4713 10.1528 11.7601 10.3636 11.9867C10.7275 12.3786 11.1535 12.5853 11.5959 12.5853C12.0382 12.5853 12.4642 12.3786 12.8276 11.9872C13.0386 11.7605 13.3062 11.4714 13.5992 11.1545C15.8453 13.4461 19.4056 17.4701 20.6248 18.8565C20.559 18.8753 20.4963 18.9046 20.4257 18.9046ZM21.3087 17.8514C21.3087 17.9487 21.2829 18.0363 21.2621 18.1259C20.0822 16.7836 16.5443 12.7828 14.2581 10.4406C16.5519 7.95278 20.0887 4.09323 21.2593 2.81526C21.2827 2.90955 21.3087 3.00321 21.3087 3.10639V17.8514Z" fill="white" stroke="#FF364C"/>
</svg>
