<svg width="16" height="26" viewBox="0 0 16 26" fill="none" xmlns="http://www.w3.org/2000/svg">
<path d="M6.35311 12.0666L6.35318 12.0666C6.91393 12.6938 7.63808 12.9962 8.35104 12.9962C9.06397 12.9962 9.78798 12.6939 10.349 12.0666L10.349 12.0666C11.4864 10.7948 11.4865 8.70345 10.349 7.43143L6.35311 12.0666ZM6.35311 12.0666C5.21564 10.7948 5.21561 8.7034 6.35313 7.43138L6.35318 7.43133M6.35311 12.0666L6.35318 7.43133M6.35318 7.43133C6.8979 6.82204 7.60723 6.5 8.35104 6.5M6.35318 7.43133L8.35104 6.5M8.35104 6.5C9.09474 6.5 9.80396 6.82214 10.349 7.43138L8.35104 6.5ZM8.35104 6.98397C7.68659 6.98397 7.03316 7.26784 6.54538 7.8133C5.58545 8.88672 5.58545 10.6114 6.54538 11.6849C7.01645 12.2116 7.65797 12.5151 8.35104 12.5151C9.04412 12.5151 9.68564 12.2116 10.1567 11.6849C11.1166 10.6114 11.1166 8.88672 10.1567 7.8133C9.66893 7.26784 9.0155 6.98397 8.35104 6.98397Z" fill="#FF364C" stroke="#FF364C"/>
<path d="M7.44353 23.2344L7.85517 23.8089L8.25988 23.2295C8.9214 22.2825 10.135 20.4837 11.3373 18.3863C13.6216 14.4019 14.8884 11.0686 14.8884 8.78619C14.8884 4.53699 11.7857 0.982814 7.85721 0.982814C3.92871 0.982814 0.826034 4.53699 0.826034 8.78619C0.826034 11.1893 2.0926 14.5623 4.38383 18.5094L4.81625 18.2583L4.38383 18.5094C5.57951 20.5691 6.78249 22.3119 7.44353 23.2344ZM7.96626 24.298L7.85882 24.4436L7.75017 24.3009C7.60611 24.1116 5.78262 21.699 3.99748 18.582C3.10493 17.0235 2.22708 15.2978 1.57348 13.5922C0.917699 11.8809 0.5 10.2212 0.5 8.78619C0.5 4.16358 3.85193 0.5 7.85721 0.5C11.8625 0.5 15.2144 4.16358 15.2144 8.78619C15.2144 10.1438 14.7986 11.7632 14.1424 13.4615C13.489 15.1527 12.6113 16.8866 11.7188 18.463C9.93421 21.6154 8.11119 24.1017 7.9663 24.298C7.96629 24.298 7.96628 24.298 7.96626 24.298Z" fill="#FF364C" stroke="#FF364C"/>
</svg>
