<svg width="22" height="26" viewBox="0 0 22 26" fill="none" xmlns="http://www.w3.org/2000/svg">
<path d="M14.5015 18.3028L14.4987 18.3055C14.4988 18.3054 14.4987 18.3055 14.4986 18.3057C14.497 18.3073 14.4839 18.3209 14.453 18.3579C14.4283 18.3876 14.4038 18.418 14.3722 18.4573C14.3595 18.473 14.3457 18.4902 14.3303 18.5093C14.2323 18.6307 14.0936 18.7999 13.9228 18.9667C13.5754 19.3061 13.0387 19.6909 12.2759 19.7419C11.526 19.7921 10.7466 19.5069 9.92835 18.921C9.11142 18.336 8.18082 17.399 7.09206 15.9985L14.5015 18.3028ZM14.5015 18.3028L15.3025 17.5188C15.3032 17.5182 15.3039 17.5176 15.3045 17.5169C15.5415 17.2883 15.7334 17.1952 15.8772 17.1577C16.0186 17.1209 16.1764 17.1214 16.3738 17.1784C16.8131 17.3053 17.3534 17.6816 18.0158 18.3151C18.016 18.3153 18.0162 18.3155 18.0164 18.3157L18.8355 19.1038L18.8371 19.1052C19.5052 19.7452 19.8918 20.2574 20.0214 20.6611C20.0777 20.8364 20.077 20.9665 20.0462 21.0799C20.014 21.1986 19.9274 21.3762 19.6902 21.6068L19.6891 21.6078L18.9596 22.3191L18.9293 22.3486L18.9016 22.3805C18.4688 22.8804 17.086 24.2488 14.8062 24.2763L14.8061 24.2763C12.0447 24.3099 8.87922 22.3695 5.42933 17.9257L5.42882 17.9251C1.99516 13.5098 0.645543 9.66941 1.07864 6.46597L1.07869 6.46557C1.43607 3.81419 2.89993 2.44794 3.37885 2.0578L3.41385 2.02929L3.44614 1.99774L4.17044 1.29002C4.17082 1.28965 4.17121 1.28928 4.17159 1.2889C4.41479 1.05328 4.5592 1.0106 4.60467 1.00265C4.63189 0.99789 4.6821 0.99208 4.79562 1.05874C5.09921 1.23703 5.4955 1.71787 5.98211 2.5634L6.56494 3.58728L6.56573 3.58867C7.0309 4.40283 7.31317 5.08889 7.37131 5.6616C7.42271 6.16795 7.30457 6.59757 6.86854 7.02232L6.86841 7.02245M14.5015 18.3028L6.86841 7.02245M6.86841 7.02245L6.06321 7.80711M6.86841 7.02245L6.06321 7.80711M6.06321 7.80711C6.06075 7.80931 6.04703 7.82148 6.01218 7.84853C5.98342 7.87086 5.95481 7.89227 5.91756 7.92015C5.90065 7.93281 5.88196 7.9468 5.86067 7.96281C5.73741 8.05551 5.56622 8.18669 5.39334 8.35352C5.03408 8.7002 4.65977 9.20816 4.52544 9.94975C4.26828 11.3694 4.95416 13.2512 7.09174 15.9981L6.06321 7.80711ZM0.0876547 6.33199C-0.397515 9.9206 1.13297 14.03 4.63943 18.539C8.14147 23.0499 11.5703 25.3157 14.8183 25.2762C17.5176 25.2437 19.1478 23.624 19.6576 23.0351L0.0876547 6.33199Z" stroke="#FF364C" stroke-width="2"/>
</svg>
