<?xml version="1.0" encoding="utf-8"?>
<!-- Generator: Adobe Illustrator 25.0.0, SVG Export Plug-In . SVG Version: 6.00 Build 0)  -->
<svg version="1.1" id="Слой_1" xmlns="http://www.w3.org/2000/svg" xmlns:xlink="http://www.w3.org/1999/xlink" x="0px" y="0px"
	 viewBox="0 0 22 26" style="enable-background:new 0 0 22 26;" xml:space="preserve">
<style type="text/css">
	.st0{display:none;fill:#FFFFFF;stroke:#FF364C;}
	.st1{fill:none;stroke:#FF364C;stroke-width:2;}
	.st2{display:none;fill:none;stroke:#55FF76;}
</style>
<path class="st0" d="M8,13.8"/>
<path class="st1" d="M6.6,7.3c0.2-0.1,0.6-0.4,0.7-0.9S7.2,5.5,7.1,5.3C5.9,2.7,5.4,1.4,4.7,1.4c-0.2,0-0.7,0.1-1.4,1
	c-8.5,6.4,8.5,29.9,16.3,19.5c1.2-1.1-0.9-2.4-1.7-3.3c-1.4-1.5-2.4-1.5-3.5,0c-0.6,1.3-1.3,1.6-1.8,1.7c-1.7,0.6-3.6-1.7-5.6-4
	c-1.7-2-2.3-3.4-2.5-4.5c-0.4-1.7,0-2.5,0.1-2.8C5.2,7.9,6.2,7.4,6.6,7.3z"/>
<path class="st0" d="M6.6,13.3"/>
<path class="st2" d="M7.3,5.9"/>
<path class="st2" d="M7.5,6.3"/>
<path class="st2" d="M-2.4,4.9"/>
</svg>
